<svg xmlns="http://www.w3.org/2000/svg" width="375" height="352" viewBox="0 0 375 352">
<g>
<path d="M 121.50 315.25 C112.09,321.80 108.17,322.81 102.50,320.15 C101.14,319.51 100.02,319.23 99.10,318.64 C94.96,315.97 94.97,306.88 94.99,228.80 C95.00,221.83 95.00,214.30 95.00,206.18 L 95.00 204.82 C95.00,106.23 95.00,94.58 98.44,84.05 C98.91,82.59 99.46,81.15 100.08,79.51 C101.31,76.21 103.15,72.16 104.16,70.51 C106.68,66.37 106.52,65.42 102.48,60.70 C99.12,56.78 95.00,46.36 95.00,41.79 C95.00,40.26 95.42,39.96 96.75,40.53 C103.81,43.55 111.62,46.01 115.91,46.58 C120.71,47.22 121.22,47.06 125.47,43.58 C139.52,32.07 159.95,24.00 175.07,24.00 L 180.00 24.00 L 180.00 57.42 C180.00,78.22 180.37,90.96 180.97,91.17 C182.01,91.52 181.22,96.00 180.12,96.00 C179.76,96.00 178.68,93.77 177.71,91.04 C169.67,68.40 140.03,61.97 122.86,79.14 C107.38,94.62 110.80,120.82 130.67,139.00 C142.00,149.36 155.09,155.24 171.50,157.35 L 180.50 158.50 L 180.32 173.73 C180.19,183.82 180.50,189.19 181.22,189.64 C181.85,190.02 182.02,189.85 181.64,189.22 C181.27,188.63 181.39,187.88 181.90,187.56 C182.68,187.08 182.72,187.93 182.04,191.00 C181.98,191.27 181.04,192.57 179.96,193.87 L 177.98 196.24 L 163.98 182.37 C156.28,174.74 149.55,168.35 149.02,168.18 C148.50,168.00 140.17,174.23 130.51,182.02 L 112.96 196.18 L 127.27 210.97 C145.47,229.78 179.00,270.48 179.00,273.76 C179.00,274.67 156.25,291.08 121.50,315.25 ZM 153.70 117.90 C148.71,120.32 146.02,120.45 140.68,118.55 C133.55,116.01 129.81,110.73 129.69,103.03 C129.60,96.78 130.64,95.24 133.13,97.91 C139.00,104.21 148.08,98.60 145.03,90.57 C144.49,89.16 143.59,88.00 143.02,88.00 C142.46,88.00 142.00,87.55 142.00,87.00 C142.00,86.45 144.18,86.00 146.85,86.00 C152.50,86.00 157.20,88.68 160.73,93.92 C165.87,101.55 162.30,113.74 153.70,117.90 ZM 214.52 102.62 C209.74,102.62 207.32,103.21 203.68,105.24 L 199.00 107.86 L 199.00 105.38 C199.00,101.46 201.61,97.43 205.69,95.02 C208.80,93.18 210.57,92.87 215.85,93.20 C221.85,93.59 222.49,93.87 226.12,97.77 C228.89,100.73 230.00,102.81 230.00,105.00 L 230.00 108.08 L 225.34 105.35 C221.63,103.18 219.43,102.62 214.52,102.62 ZM 173.32 125.14 C172.68,128.35 171.54,128.84 170.57,126.32 C170.12,125.16 171.37,123.17 174.68,119.82 C177.29,117.17 179.77,115.00 180.19,115.00 C180.62,115.00 179.37,116.64 177.43,118.64 C175.48,120.64 173.64,123.57 173.32,125.14 ZM 213.50 151.99 C213.17,152.54 212.01,153.46 210.93,154.04 C209.44,154.83 209.03,154.78 209.24,153.79 C209.38,153.08 209.95,152.17 210.50,151.77 C211.98,150.68 214.21,150.85 213.50,151.99 ZM 265.00 163.30 C265.00,166.38 264.50,166.75 263.57,164.33 C263.22,163.42 263.40,162.20 263.97,161.63 C264.68,160.92 265.00,161.44 265.00,163.30 Z" fill="rgb(6,43,103)"/>
<path d="M 194.01 235.50 C182.20,252.41 177.20,259.16 179.42,255.24 C179.83,254.52 179.47,253.73 178.59,253.39 C177.74,253.07 175.54,250.71 173.69,248.15 C167.69,239.84 150.38,219.56 140.00,208.69 C131.88,200.19 130.05,197.74 130.80,196.40 C132.25,193.81 146.23,183.00 148.14,183.00 C149.07,183.00 156.32,189.76 164.27,198.03 L 178.71 213.06 L 185.93 203.45 C189.90,198.17 193.90,193.06 194.83,192.09 C195.75,191.12 197.18,189.30 198.00,188.04 C200.44,184.30 215.36,165.82 219.33,161.61 C221.35,159.47 223.00,157.34 223.00,156.89 C223.00,154.99 262.15,116.74 269.91,111.05 C274.54,107.66 282.53,102.84 287.65,100.35 C296.67,95.96 297.30,95.81 306.50,95.75 C311.74,95.72 316.34,96.01 316.73,96.39 C318.05,97.72 315.32,100.51 307.80,105.50 C278.51,124.95 242.55,166.03 194.01,235.50 Z" fill="rgb(6,109,243)"/>
<path d="M 157.81 289.77 C145.72,298.32 130.97,308.68 124.73,313.00 C157.66,290.07 179.00,274.64 179.00,273.76 C179.00,273.08 177.59,270.84 175.19,267.52 C179.33,272.67 182.00,274.51 182.00,272.10 C182.00,271.61 184.84,267.22 188.31,262.35 C191.77,257.48 201.19,244.23 209.23,232.90 C217.27,221.57 224.47,211.67 225.23,210.90 C225.99,210.13 226.89,208.82 227.22,208.00 C227.87,206.41 249.64,178.29 255.48,171.51 C257.38,169.31 260.28,165.93 261.94,164.00 L 263.82 161.81 C263.37,162.43 263.26,163.50 263.57,164.33 C264.32,166.27 264.79,166.42 264.94,164.80 L 264.97 236.30 C264.97,239.34 264.97,242.27 264.97,245.09 C265.01,307.85 265.01,314.99 261.48,318.05 C260.86,318.58 260.14,318.99 259.30,319.54 C254.52,322.68 248.42,321.98 241.75,317.54 C238.59,315.44 236.00,313.33 236.00,312.86 C236.00,312.39 235.49,312.00 234.88,312.00 C233.55,312.00 221.10,303.34 216.54,299.25 C215.77,298.56 214.89,298.00 214.58,298.00 C213.66,298.00 199.53,287.78 199.17,286.85 C198.98,286.38 198.20,286.00 197.42,286.00 C196.64,286.00 196.00,285.65 196.00,285.23 C196.00,284.80 194.43,283.61 192.50,282.57 C190.57,281.53 189.00,280.31 189.00,279.84 C189.00,279.38 188.32,279.00 187.50,279.00 C186.68,279.00 186.00,278.55 186.00,278.00 C186.00,277.45 185.37,277.00 184.61,277.00 C183.84,277.00 182.95,276.33 182.64,275.50 C182.32,274.67 181.62,274.00 181.09,274.00 C180.55,274.00 170.07,281.10 157.81,289.77 ZM 181.46 92.69 C181.48,91.92 181.34,91.29 180.97,91.17 C180.37,90.96 180.00,78.22 180.00,57.42 L 180.00 24.00 L 175.07 24.00 C174.46,24.00 173.85,24.01 173.23,24.04 C188.20,22.80 203.47,25.56 217.53,32.51 C222.50,34.97 229.45,39.30 232.97,42.14 L 239.38 47.30 L 246.07 46.26 C249.76,45.69 255.52,43.90 258.88,42.29 L 265.00 39.35 L 265.00 42.00 C265.00,46.92 262.05,54.60 257.99,60.28 L 253.94 65.93 L 256.96 71.92 C260.16,78.25 263.52,89.51 264.45,97.00 L 265.01 101.50 L 256.58 108.25 C251.95,111.96 247.73,115.00 247.20,115.00 C246.67,115.00 246.31,111.01 246.38,105.75 C246.54,93.31 244.38,86.75 237.88,79.97 C230.78,72.56 223.65,69.54 213.40,69.58 C203.75,69.62 197.16,72.35 190.10,79.22 C186.77,82.45 182.77,88.85 181.46,92.69 ZM 182.09 190.79 C182.71,187.89 182.66,187.09 181.90,187.56 C181.39,187.88 181.27,188.63 181.64,189.22 C182.02,189.85 181.85,190.02 181.22,189.64 C180.50,189.19 180.19,183.82 180.32,173.73 L 180.50 158.50 L 171.50 157.35 C160.27,155.91 150.59,152.70 141.96,147.49 C159.92,158.06 183.22,161.02 204.26,153.97 C206.49,153.22 208.58,152.53 210.22,152.01 C209.77,152.47 209.36,153.20 209.24,153.79 C209.03,154.78 209.44,154.83 210.93,154.04 C211.25,153.87 211.57,153.67 211.87,153.46 C211.12,154.39 210.16,155.53 209.09,156.75 C205.11,161.29 188.86,181.84 182.09,190.79 ZM 173.32 125.14 C173.64,123.57 175.48,120.64 177.43,118.64 C179.37,116.64 180.62,115.00 180.19,115.00 C179.77,115.00 177.29,117.17 174.68,119.82 C173.35,121.17 172.35,122.30 171.66,123.24 C172.39,122.13 173.50,120.77 175.08,119.03 L 180.05 113.57 L 185.44 119.03 L 190.84 124.50 L 186.06 132.78 C183.43,137.33 181.09,141.24 180.86,141.47 C180.22,142.11 177.82,140.40 177.92,139.39 C177.97,138.90 177.34,137.71 176.52,136.75 C175.69,135.79 175.27,135.00 175.58,135.00 C175.89,135.00 175.44,134.29 174.57,133.43 C173.71,132.56 173.00,131.25 173.00,130.51 C173.00,129.77 172.61,129.02 172.13,128.83 C171.71,128.67 171.15,127.83 170.81,126.88 C171.72,128.74 172.73,128.08 173.32,125.14 ZM 316.87 96.57 C317.28,96.67 317.61,96.79 317.83,96.91 C320.00,98.07 319.73,98.36 311.90,103.06 C309.41,104.56 307.16,105.96 305.04,107.38 C305.97,106.73 306.89,106.11 307.80,105.50 C315.01,100.72 317.82,97.96 316.87,96.57 ZM 156.34 27.19 C145.46,30.57 134.22,36.40 125.47,43.58 C134.83,35.91 145.34,30.42 156.34,27.19 ZM 288.72 120.40 C286.49,122.44 284.06,124.73 281.32,127.35 C270.29,137.94 258.61,150.73 245.85,166.23 C261.66,146.99 275.82,131.86 288.72,120.40 ZM 162.14 250.85 C151.12,237.34 137.00,221.03 127.27,210.97 C137.30,221.34 150.74,236.76 162.14,250.85 ZM 122.86 79.14 C115.12,86.88 112.00,97.76 113.64,108.98 C111.93,97.90 114.90,87.10 122.86,79.14 ZM 264.94 162.18 C264.82,161.27 264.51,161.10 263.98,161.62 L 264.94 160.50 ZM 180.28 95.97 C180.55,95.86 180.81,95.48 181.00,94.97 C180.96,95.94 180.69,96.24 180.28,95.97 ZM 213.52 151.29 C213.44,151.21 213.32,151.15 213.18,151.10 C213.42,151.04 213.57,151.00 213.62,151.00 C213.67,151.00 213.63,151.10 213.52,151.29 ZM 107.91 321.52 C106.11,321.55 104.43,321.06 102.50,320.15 C104.41,321.04 106.12,321.52 107.91,321.52 Z" fill="rgb(15,66,151)"/>
<path d="M 0.00 176.00 L 0.00 0.00 L 187.50 0.00 L 375.00 0.00 L 375.00 176.00 L 375.00 352.00 L 187.50 352.00 L 0.00 352.00 L 0.00 176.00 ZM 124.46 313.19 C130.53,308.99 145.54,298.45 157.81,289.77 C170.07,281.10 180.55,274.00 181.09,274.00 C181.62,274.00 182.32,274.67 182.64,275.50 C182.95,276.33 183.84,277.00 184.61,277.00 C185.37,277.00 186.00,277.45 186.00,278.00 C186.00,278.55 186.68,279.00 187.50,279.00 C188.32,279.00 189.00,279.38 189.00,279.84 C189.00,280.31 190.57,281.53 192.50,282.57 C194.43,283.61 196.00,284.80 196.00,285.23 C196.00,285.65 196.64,286.00 197.42,286.00 C198.20,286.00 198.98,286.38 199.17,286.85 C199.53,287.78 213.66,298.00 214.58,298.00 C214.89,298.00 215.77,298.56 216.54,299.25 C221.10,303.34 233.55,312.00 234.88,312.00 C235.49,312.00 236.00,312.39 236.00,312.86 C236.00,313.33 238.59,315.44 241.75,317.54 C248.42,321.98 254.52,322.68 259.30,319.54 C265.23,315.65 265.00,318.96 264.97,236.30 L 264.94 160.50 L 261.94 164.00 C260.28,165.93 257.38,169.31 255.48,171.51 C249.64,178.29 227.87,206.41 227.22,208.00 C226.89,208.82 225.99,210.13 225.23,210.90 C224.47,211.67 217.27,221.57 209.23,232.90 C201.19,244.23 191.77,257.48 188.31,262.35 C184.84,267.22 182.00,271.61 182.00,272.10 C182.00,274.84 178.56,272.09 173.42,265.25 C160.86,248.53 140.92,225.07 127.27,210.97 L 112.96 196.18 L 130.51 182.02 C140.17,174.23 148.50,168.00 149.02,168.18 C149.55,168.35 156.30,174.76 164.03,182.42 C177.92,196.19 178.09,196.31 179.63,194.11 C183.26,188.93 204.47,162.03 209.09,156.75 C211.85,153.59 213.89,151.00 213.62,151.00 C213.34,151.00 209.13,152.33 204.26,153.97 C173.23,164.36 137.29,152.99 120.79,127.54 C109.97,110.85 110.81,91.19 122.86,79.14 C140.03,61.97 169.67,68.40 177.71,91.04 C179.37,95.71 180.99,97.53 181.01,94.75 C181.03,91.74 186.06,83.14 190.10,79.22 C197.16,72.35 203.75,69.62 213.40,69.58 C223.65,69.54 230.78,72.56 237.88,79.97 C244.38,86.75 246.54,93.31 246.38,105.75 C246.31,111.01 246.67,115.00 247.20,115.00 C247.73,115.00 251.95,111.96 256.58,108.25 L 265.01 101.50 L 264.45 97.00 C263.52,89.51 260.16,78.25 256.96,71.92 L 253.94 65.93 L 257.99 60.28 C262.05,54.60 265.00,46.92 265.00,42.00 L 265.00 39.35 L 258.88 42.29 C255.52,43.90 249.76,45.69 246.07,46.26 L 239.38 47.30 L 232.97 42.14 C229.45,39.30 222.50,34.97 217.53,32.51 C187.46,17.65 151.89,21.93 125.47,43.58 C121.22,47.06 120.71,47.22 115.91,46.58 C111.62,46.01 103.81,43.55 96.75,40.53 C95.42,39.96 95.00,40.26 95.00,41.79 C95.00,46.36 99.12,56.78 102.48,60.70 C106.52,65.42 106.68,66.37 104.16,70.51 C103.15,72.16 101.31,76.21 100.08,79.51 C94.98,93.07 95.00,92.56 95.00,206.18 C95.00,325.30 94.41,316.36 102.50,320.15 C108.47,322.95 111.96,321.84 124.46,313.19 ZM 194.01 235.50 C229.31,184.98 256.92,150.79 281.32,127.35 C294.50,114.71 300.63,109.83 311.90,103.06 C319.73,98.36 320.00,98.07 317.83,96.91 C316.49,96.19 311.77,95.72 306.27,95.75 C297.34,95.81 296.62,95.99 287.65,100.35 C282.53,102.84 274.54,107.66 269.91,111.05 C262.15,116.74 223.00,154.99 223.00,156.89 C223.00,157.34 221.35,159.47 219.33,161.61 C215.36,165.82 200.44,184.30 198.00,188.04 C197.18,189.30 195.75,191.12 194.83,192.09 C193.90,193.06 189.90,198.17 185.93,203.45 L 178.71 213.06 L 164.27 198.03 C156.32,189.76 149.07,183.00 148.14,183.00 C146.23,183.00 132.25,193.81 130.80,196.40 C130.05,197.74 131.88,200.19 140.00,208.69 C150.38,219.56 167.69,239.84 173.69,248.15 C175.54,250.71 177.74,253.07 178.59,253.39 C179.47,253.73 179.83,254.52 179.42,255.24 C177.20,259.16 182.20,252.41 194.01,235.50 ZM 186.06 132.78 L 190.84 124.50 L 185.44 119.03 L 180.05 113.57 L 175.08 119.03 C171.46,123.02 170.27,125.04 170.69,126.50 C171.00,127.60 171.65,128.65 172.13,128.83 C172.61,129.02 173.00,129.77 173.00,130.51 C173.00,131.25 173.71,132.56 174.57,133.43 C175.44,134.29 175.89,135.00 175.58,135.00 C175.27,135.00 175.69,135.79 176.52,136.75 C177.34,137.71 177.97,138.90 177.92,139.39 C177.82,140.40 180.22,142.11 180.86,141.47 C181.09,141.24 183.43,137.33 186.06,132.78 ZM 153.70 117.90 C162.30,113.74 165.87,101.55 160.73,93.92 C157.20,88.68 152.50,86.00 146.85,86.00 C144.18,86.00 142.00,86.45 142.00,87.00 C142.00,87.55 142.46,88.00 143.02,88.00 C143.59,88.00 144.49,89.16 145.03,90.57 C148.08,98.60 139.00,104.21 133.13,97.91 C130.64,95.24 129.60,96.78 129.69,103.03 C129.81,110.73 133.55,116.01 140.68,118.55 C146.02,120.45 148.71,120.32 153.70,117.90 ZM 214.52 102.62 C219.43,102.62 221.63,103.18 225.34,105.35 L 230.00 108.08 L 230.00 105.00 C230.00,102.81 228.89,100.73 226.12,97.77 C222.49,93.87 221.85,93.59 215.85,93.20 C210.57,92.87 208.80,93.18 205.69,95.02 C201.61,97.43 199.00,101.46 199.00,105.38 L 199.00 107.86 L 203.68 105.24 C207.32,103.21 209.74,102.62 214.52,102.62 Z" fill="rgb(253,254,254)"/>
</g>
</svg>